<svg xmlns="http://www.w3.org/2000/svg" xmlns:xlink="http://www.w3.org/1999/xlink" width="256" zoomAndPan="magnify" viewBox="0 0 192 191.999996" height="256" preserveAspectRatio="xMidYMid meet" version="1.0"><defs><clipPath id="23355d0faa"><path d="M 46 10 L 148.660156 10 L 148.660156 183.34375 L 46 183.34375 Z M 46 10 " clip-rule="nonzero"/></clipPath></defs><g clip-path="url(#23355d0faa)"><path fill="#ffffff" d="M 61.835938 183.371094 C 58.097656 183.371094 54.355469 181.996094 51.425781 179.21875 C 45.363281 173.46875 45.113281 163.894531 50.863281 157.828125 L 108.796875 96.75 L 50.863281 35.667969 C 45.109375 29.605469 45.363281 20.027344 51.425781 14.277344 C 57.492188 8.527344 67.066406 8.78125 72.816406 14.84375 L 140.625 86.335938 C 146.164062 92.175781 146.164062 101.324219 140.625 107.160156 L 72.816406 178.65625 C 69.84375 181.792969 65.84375 183.371094 61.835938 183.371094 Z M 188.199219 178.65625 L 256.007812 107.164062 C 261.546875 101.324219 261.546875 92.175781 256.007812 86.335938 L 188.199219 14.84375 C 182.449219 8.78125 172.871094 8.527344 166.808594 14.277344 C 160.746094 20.027344 160.492188 29.605469 166.242188 35.667969 L 224.179688 96.75 L 166.242188 157.828125 C 160.492188 163.894531 160.746094 173.46875 166.808594 179.21875 C 169.734375 181.996094 173.480469 183.371094 177.21875 183.371094 C 181.222656 183.371094 185.222656 181.792969 188.199219 178.65625 Z M 303.578125 178.65625 L 371.390625 107.164062 C 376.925781 101.324219 376.925781 92.175781 371.390625 86.335938 L 303.578125 14.84375 C 297.828125 8.78125 288.253906 8.527344 282.191406 14.277344 C 276.128906 20.027344 275.875 29.605469 281.625 35.667969 L 339.558594 96.75 L 281.625 157.828125 C 275.875 163.894531 276.128906 173.46875 282.191406 179.21875 C 285.117188 181.996094 288.863281 183.371094 292.597656 183.371094 C 296.605469 183.371094 300.605469 181.792969 303.578125 178.65625 Z M 418.964844 178.65625 L 486.773438 107.164062 C 492.308594 101.324219 492.308594 92.175781 486.773438 86.335938 L 418.964844 14.84375 C 413.210938 8.78125 403.636719 8.527344 397.570312 14.277344 C 391.511719 20.027344 391.257812 29.605469 397.007812 35.667969 L 454.941406 96.75 L 397.007812 157.828125 C 391.257812 163.894531 391.511719 173.46875 397.570312 179.21875 C 400.5 181.996094 404.242188 183.371094 407.984375 183.371094 C 411.988281 183.371094 415.988281 181.792969 418.964844 178.65625 Z M 534.34375 178.65625 L 602.15625 107.164062 C 607.691406 101.324219 607.691406 92.175781 602.15625 86.335938 L 534.34375 14.84375 C 528.589844 8.777344 519.015625 8.527344 512.953125 14.277344 C 506.890625 20.027344 506.636719 29.605469 512.386719 35.667969 L 570.324219 96.75 L 512.386719 157.828125 C 506.636719 163.894531 506.890625 173.46875 512.953125 179.21875 C 515.878906 181.996094 519.625 183.371094 523.363281 183.371094 C 527.371094 183.371094 531.367188 181.792969 534.34375 178.65625 Z M 534.34375 178.65625 " fill-opacity="1" fill-rule="nonzero"/></g></svg>